<svg xmlns="http://www.w3.org/2000/svg" xmlns:xlink="http://www.w3.org/1999/xlink" width="120" height="120" viewBox="0 0 120 120">
  <defs>
    <rect id="us-a" width="200" height="100" />
  </defs>
  <g fill="none" fill-rule="evenodd">
    <mask id="us-b" fill="#fff">
      <use xlink:href="#us-a"/>
    </mask>
    <use fill="#FFFFFE" xlink:href="#us-a"/>
    <path fill="#B02437" d="M120,110.763491 L120,120 L0.22181146,120 L0.22181146,110.763491 L120,110.763491 Z M120,92.1085871 L120,101.332271 L0.22181146,101.332271 L0.22181146,92.1085871 L120,92.1085871 Z M120,73.4536834 L120,82.6925244 L0.22181146,82.6925244 L0.22181146,73.4536834 L120,73.4536834 Z M120,55.9647111 L120,65.2152115 L0.22181146,65.2152115 L0.22181146,55.9647111 L120,55.9647111 Z M120,37.3098074 L120,46.5439848 L0.22181146,46.5439848 L0.22181146,37.3098074 L120,37.3098074 Z M120,18.6549037 L120,27.9030722 L0.22181146,27.9030722 L0.22181146,18.6549037 L120,18.6549037 Z M119.778189,2.13162821e-13 L119.778189,9.24816852 L7.13318293e-15,9.24816852 L7.13318293e-15,2.13162821e-13 L119.778189,2.13162821e-13 Z" mask="url(#us-b)"/>
    <polygon fill="#3C3C6D" points="0 65 69 65 69 0 0 0" mask="url(#us-b)"/>
    <path fill="#FFFFFE" d="M0.237664783,50.0970874 L1.0173258,52.5495146 L3.51111111,52.5495146 L1.49416196,54.0466019 L2.27269303,56.4885437 L0.237664783,54.9798058 L-1.7566855,56.4885437 L-0.991713748,54.0466019 L-3.01318267,52.5495146 L-0.526177024,52.5495146 L0.237664783,50.0970874 Z M14.9280603,50.0970874 L15.7077213,52.5495146 L18.1766478,52.5495146 L16.1574388,54.0466019 L16.9585687,56.4885437 L14.9280603,54.9798058 L12.9065913,56.4885437 L13.672693,54.0466019 L11.6760829,52.5495146 L14.1608286,52.5495146 L14.9280603,50.0970874 Z M29.613936,50.0970874 L30.393597,52.5495146 L32.8783427,52.5495146 L30.8704331,54.0466019 L31.6489642,56.4885437 L29.613936,54.9798058 L27.6173258,56.4885437 L28.3743879,54.0466019 L26.3653484,52.5495146 L28.8512241,52.5495146 L29.613936,50.0970874 Z M44.3077213,50.0970874 L45.0839925,52.5495146 L47.5709981,52.5495146 L45.5630885,54.0466019 L46.3178908,56.4885437 L44.3077213,54.9798058 L42.3099812,56.4885437 L43.0647834,54.0466019 L41.0546139,52.5495146 L43.5393597,52.5495146 L44.3077213,50.0970874 Z M58.9947269,50.0970874 L59.7856874,52.5495146 L62.2591337,52.5495146 L60.2512241,54.0466019 L61.0274953,56.4885437 L58.9947269,54.9798058 L56.9981168,56.4885437 L57.752919,54.0466019 L55.7438795,52.5495146 L58.2297552,52.5495146 L58.9947269,50.0970874 Z M8.15969868,45.4368932 L8.92580038,47.8683495 L11.433145,47.8683495 L9.40263653,49.3747573 L10.1811676,51.8050485 L8.15969868,50.2963107 L6.14952919,51.8050485 L6.92806026,49.3747573 L4.89642185,47.8683495 L7.39246704,47.8683495 L8.15969868,45.4368932 Z M36.393597,45.4368932 L37.1619586,47.8683495 L39.6693032,47.8683495 L37.6478343,49.3747573 L38.4150659,51.8050485 L36.393597,50.2963107 L34.3856874,51.8050485 L35.1653484,49.3747573 L33.1450094,47.8683495 L35.6387947,47.8683495 L36.393597,45.4368932 Z M51.0851224,45.4368932 L51.8376648,47.8683495 L54.3359699,47.8683495 L52.3382298,49.3747573 L53.0817326,51.8050485 L51.0851224,50.2963107 L49.0546139,51.8050485 L49.8286252,49.3747573 L47.834275,47.8683495 L50.3054614,47.8683495 L51.0851224,45.4368932 Z M21.7201507,45.4368932 L22.4851224,47.8683495 L24.973258,47.8683495 L22.9642185,49.3747573 L23.7167608,51.8050485 L21.7201507,50.2963107 L19.7111111,51.8050485 L20.4636535,49.3747573 L18.4557439,47.8683495 L20.9404896,47.8683495 L21.7201507,45.4368932 Z M0.237664783,39.6116505 L1.0173258,42.0535922 L3.51111111,42.0535922 L1.49416196,43.5623301 L2.27269303,46.0031068 L0.237664783,44.496699 L-1.7566855,46.0031068 L-0.991713748,43.5623301 L-3.01318267,42.0535922 L-0.526177024,42.0535922 L0.237664783,39.6116505 Z M14.9280603,39.6116505 L15.7077213,42.0535922 L18.1766478,42.0535922 L16.1574388,43.5623301 L16.9585687,46.0031068 L14.9280603,44.496699 L12.9065913,46.0031068 L13.672693,43.5623301 L11.6760829,42.0535922 L14.1608286,42.0535922 L14.9280603,39.6116505 Z M29.613936,39.6116505 L30.393597,42.0535922 L32.8783427,42.0535922 L30.8704331,43.5623301 L31.6489642,46.0031068 L29.613936,44.496699 L27.6173258,46.0031068 L28.3743879,43.5623301 L26.3653484,42.0535922 L28.8512241,42.0535922 L29.613936,39.6116505 Z M44.3077213,39.6116505 L45.0839925,42.0535922 L47.5709981,42.0535922 L45.5630885,43.5623301 L46.3178908,46.0031068 L44.3077213,44.496699 L42.3099812,46.0031068 L43.0647834,43.5623301 L41.0546139,42.0535922 L43.5393597,42.0535922 L44.3077213,39.6116505 Z M58.9947269,39.6116505 L59.7856874,42.0535922 L62.2591337,42.0535922 L60.2512241,43.5623301 L61.0274953,46.0031068 L58.9947269,44.496699 L56.9981168,46.0031068 L57.752919,43.5623301 L55.7438795,42.0535922 L58.2297552,42.0535922 L58.9947269,39.6116505 Z M8.15969868,33.7864078 L8.92580038,36.2283495 L11.433145,36.2283495 L9.40263653,37.7347573 L10.1811676,40.175534 L8.15969868,38.6691262 L6.14952919,40.175534 L6.92806026,37.7347573 L4.89642185,36.2283495 L7.39246704,36.2283495 L8.15969868,33.7864078 Z M21.7201507,33.7864078 L22.4851224,36.2283495 L24.973258,36.2283495 L22.9642185,37.7347573 L23.7167608,40.175534 L21.7201507,38.6691262 L19.7111111,40.175534 L20.4636535,37.7347573 L18.4557439,36.2283495 L20.9404896,36.2283495 L21.7201507,33.7864078 Z M36.393597,33.7864078 L37.1619586,36.2283495 L39.6693032,36.2283495 L37.6478343,37.7347573 L38.4150659,40.175534 L36.393597,38.6691262 L34.3856874,40.175534 L35.1653484,37.7347573 L33.1450094,36.2283495 L35.6387947,36.2283495 L36.393597,33.7864078 Z M51.0851224,33.7864078 L51.8376648,36.2283495 L54.3359699,36.2283495 L52.3382298,37.7347573 L53.0817326,40.175534 L51.0851224,38.6691262 L49.0546139,40.175534 L49.8286252,37.7347573 L47.834275,36.2283495 L50.3054614,36.2283495 L51.0851224,33.7864078 Z M29.613936,29.1262136 L30.393597,31.5565049 L32.8783427,31.5565049 L30.8704331,33.0652427 L31.6489642,35.5176699 L29.613936,33.9984466 L27.6173258,35.5176699 L28.3743879,33.0652427 L26.3653484,31.5565049 L28.8512241,31.5565049 L29.613936,29.1262136 Z M44.3077213,29.1262136 L45.0839925,31.5565049 L47.5709981,31.5565049 L45.5630885,33.0652427 L46.3178908,35.5176699 L44.3077213,33.9984466 L42.3099812,35.5176699 L43.0647834,33.0652427 L41.0546139,31.5565049 L43.5393597,31.5565049 L44.3077213,29.1262136 Z M14.9280603,29.1262136 L15.7077213,31.5565049 L18.1766478,31.5565049 L16.1574388,33.0652427 L16.9585687,35.5176699 L14.9280603,33.9984466 L12.9065913,35.5176699 L13.672693,33.0652427 L11.6760829,31.5565049 L14.1608286,31.5565049 L14.9280603,29.1262136 Z M58.9947269,29.1262136 L59.7856874,31.5565049 L62.2591337,31.5565049 L60.2512241,33.0652427 L61.0274953,35.5176699 L58.9947269,33.9984466 L56.9981168,35.5176699 L57.752919,33.0652427 L55.7438795,31.5565049 L58.2297552,31.5565049 L58.9947269,29.1262136 Z M21.7201507,23.3009709 L22.4851224,25.7335922 L24.973258,25.7335922 L22.9642185,27.2539806 L23.7167608,29.6819417 L21.7201507,28.2 L19.7111111,29.6819417 L20.4636535,27.2539806 L18.4557439,25.7335922 L20.9404896,25.7335922 L21.7201507,23.3009709 Z M36.393597,23.3009709 L37.1619586,25.7335922 L39.6693032,25.7335922 L37.6478343,27.2539806 L38.4150659,29.6819417 L36.393597,28.2 L34.3856874,29.6819417 L35.1653484,27.2539806 L33.1450094,25.7335922 L35.6387947,25.7335922 L36.393597,23.3009709 Z M8.15969868,23.3009709 L8.92580038,25.7335922 L11.433145,25.7335922 L9.40263653,27.2539806 L10.1811676,29.6819417 L8.15969868,28.2 L6.14952919,29.6819417 L6.92806026,27.2539806 L4.89642185,25.7335922 L7.39246704,25.7335922 L8.15969868,23.3009709 Z M51.0851224,23.3009709 L51.8376648,25.7335922 L54.3359699,25.7335922 L52.3382298,27.2539806 L53.0817326,29.6819417 L51.0851224,28.2 L49.0546139,29.6819417 L49.8286252,27.2539806 L47.834275,25.7335922 L50.3054614,25.7335922 L51.0851224,23.3009709 Z M14.9280603,17.4757282 L15.7077213,19.9176699 L18.1766478,19.9176699 L16.1574388,21.4240777 L16.9585687,23.8683495 L14.9280603,22.3596117 L12.9065913,23.8683495 L13.672693,21.4240777 L11.6760829,19.9176699 L14.1608286,19.9176699 L14.9280603,17.4757282 Z M29.613936,17.4757282 L30.393597,19.9176699 L32.8783427,19.9176699 L30.8704331,21.4240777 L31.6489642,23.8683495 L29.613936,22.3596117 L27.6173258,23.8683495 L28.3743879,21.4240777 L26.3653484,19.9176699 L28.8512241,19.9176699 L29.613936,17.4757282 Z M44.3077213,17.4757282 L45.0839925,19.9176699 L47.5709981,19.9176699 L45.5630885,21.4240777 L46.3178908,23.8683495 L44.3077213,22.3596117 L42.3099812,23.8683495 L43.0647834,21.4240777 L41.0546139,19.9176699 L43.5393597,19.9176699 L44.3077213,17.4757282 Z M58.9947269,17.4757282 L59.7856874,19.9176699 L62.2591337,19.9176699 L60.2512241,21.4240777 L61.0274953,23.8683495 L58.9947269,22.3596117 L56.9981168,23.8683495 L57.752919,21.4240777 L55.7438795,19.9176699 L58.2297552,19.9176699 L58.9947269,17.4757282 Z M21.7201507,12.815534 L22.4851224,15.2574757 L24.973258,15.2574757 L22.9642185,16.7685437 L23.7167608,19.2081553 L21.7201507,17.7017476 L19.7111111,19.2081553 L20.4636535,16.7685437 L18.4557439,15.2574757 L20.9404896,15.2574757 L21.7201507,12.815534 Z M36.393597,12.815534 L37.1619586,15.2574757 L39.6693032,15.2574757 L37.6478343,16.7685437 L38.4150659,19.2081553 L36.393597,17.7017476 L34.3856874,19.2081553 L35.1653484,16.7685437 L33.1450094,15.2574757 L35.6387947,15.2574757 L36.393597,12.815534 Z M51.0851224,12.815534 L51.8376648,15.2574757 L54.3359699,15.2574757 L52.3382298,16.7685437 L53.0817326,19.2081553 L51.0851224,17.7017476 L49.0546139,19.2081553 L49.8286252,16.7685437 L47.834275,15.2574757 L50.3054614,15.2574757 L51.0851224,12.815534 Z M29.613936,6.99029126 L30.393597,9.44737864 L32.8783427,9.44737864 L30.8704331,10.9537864 L31.6489642,13.3957282 L29.613936,11.8893204 L27.6173258,13.3957282 L28.3743879,10.9537864 L26.3653484,9.44737864 L28.8512241,9.44737864 L29.613936,6.99029126 Z M44.3077213,6.99029126 L45.0839925,9.44737864 L47.5709981,9.44737864 L45.5630885,10.9537864 L46.3178908,13.3957282 L44.3077213,11.8893204 L42.3099812,13.3957282 L43.0647834,10.9537864 L41.0546139,9.44737864 L43.5393597,9.44737864 L44.3077213,6.99029126 Z M58.9947269,6.99029126 L59.7856874,9.44737864 L62.2591337,9.44737864 L60.2512241,10.9537864 L61.0274953,13.3957282 L58.9947269,11.8893204 L56.9981168,13.3957282 L57.752919,10.9537864 L55.7438795,9.44737864 L58.2297552,9.44737864 L58.9947269,6.99029126 Z" mask="url(#us-b)"/>
  </g>
</svg>
